<svg width="18" height="18" fill="none" xmlns="http://www.w3.org/2000/svg"><g clip-path="url(#a)"><path d="M9 1.5c-3.15 0-6 2.415-6 6.15 0 2.385 1.838 5.19 5.505 8.423a.763.763 0 0 0 .997 0C13.162 12.84 15 10.035 15 7.65c0-3.735-2.85-6.15-6-6.15ZM9 9c-.825 0-1.5-.675-1.5-1.5S8.175 6 9 6s1.5.675 1.5 1.5S9.825 9 9 9Z" fill="url(#b)"/></g><defs><linearGradient id="b" x1="9" y1="1.5" x2="9" y2="16.258" gradientUnits="userSpaceOnUse"><stop stop-color="#FFB800"/><stop offset="1" stop-color="#F2A20D"/></linearGradient><clipPath id="a"><path fill="#fff" d="M0 0h18v18H0z"/></clipPath></defs></svg>