<svg width="18" height="18" fill="none" xmlns="http://www.w3.org/2000/svg"><g clip-path="url(#a)"><path d="m14.422 11.445-1.905-.217a1.493 1.493 0 0 0-1.23.427l-1.38 1.38a11.284 11.284 0 0 1-4.942-4.942l1.387-1.388c.323-.322.48-.772.428-1.23l-.218-1.89A1.501 1.501 0 0 0 5.07 2.258H3.772c-.847 0-1.552.705-1.5 1.552.398 6.405 5.52 11.52 11.918 11.918.847.052 1.552-.653 1.552-1.5V12.93a1.486 1.486 0 0 0-1.32-1.485Z" fill="url(#b)"/></g><defs><linearGradient id="b" x1="9.006" y1="2.258" x2="9.006" y2="15.73" gradientUnits="userSpaceOnUse"><stop stop-color="#FFB800"/><stop offset="1" stop-color="#F2A20D"/></linearGradient><clipPath id="a"><path fill="#fff" d="M0 0h18v18H0z"/></clipPath></defs></svg>