<svg width="32" height="32" fill="none" xmlns="http://www.w3.org/2000/svg"><g clip-path="url(#a)"><path d="M32 16.097c0-8.836-7.164-16-16-16s-16 7.164-16 16c0 7.987 5.85 14.606 13.5 15.806v-11.18H9.437v-4.627H13.5v-3.523c0-4.009 2.39-6.225 6.044-6.225 1.75 0 3.581.313 3.581.313V10.6h-2.018c-1.988 0-2.608 1.233-2.608 2.498v3h4.437l-.71 4.627H18.5v11.18C26.149 30.703 32 24.083 32 16.097Z" fill="url(#b)"/></g><defs><linearGradient id="b" x1="16" y1=".097" x2="16" y2="31.904" gradientUnits="userSpaceOnUse"><stop stop-color="#FFB800"/><stop offset="1" stop-color="#F2A20D"/></linearGradient><clipPath id="a"><path fill="#fff" d="M0 0h32v32H0z"/></clipPath></defs></svg>