<svg width="136" height="37" viewBox="0 0 136 37" fill="none" xmlns="http://www.w3.org/2000/svg">
<path d="M5.04 15.493C5.688 14.4205 6.576 13.549 7.704 12.8787C8.856 12.2084 10.164 11.8732 11.628 11.8732C13.332 11.8732 14.868 12.3425 16.236 13.2809C17.628 14.2194 18.72 15.56 19.512 17.3028C20.328 19.0189 20.736 21.0164 20.736 23.2955C20.736 25.5746 20.328 27.599 19.512 29.3686C18.72 31.1114 17.628 32.4655 16.236 33.4307C14.868 34.396 13.332 34.8786 11.628 34.8786C10.14 34.8786 8.832 34.5569 7.704 33.9134C6.6 33.243 5.712 32.385 5.04 31.3393V34.5167H0V4.75445H5.04V15.493ZM15.588 23.2955C15.588 21.9549 15.336 20.8019 14.832 19.8366C14.352 18.8446 13.704 18.0938 12.888 17.5844C12.1004 17.0762 11.2055 16.8124 10.296 16.8202C9.384 16.8202 8.52 17.0883 7.704 17.6246C6.912 18.134 6.264 18.8848 5.76 19.8769C5.28 20.8689 5.04 22.0353 5.04 23.3759C5.04 24.7166 5.28 25.8829 5.76 26.875C6.264 27.8671 6.912 28.6312 7.704 29.1675C8.52 29.6769 9.384 29.9317 10.296 29.9317C11.232 29.9317 12.096 29.6635 12.888 29.1273C13.704 28.591 14.352 27.8269 14.832 26.8348C15.336 25.8427 15.588 24.663 15.588 23.2955ZM26.954 9.58075C26.066 9.58075 25.322 9.2724 24.722 8.65571C24.146 8.0122 23.858 7.22122 23.858 6.28278C23.858 5.34433 24.146 4.56676 24.722 3.95006C25.322 3.30656 26.066 2.9848 26.954 2.9848C27.842 2.9848 28.574 3.30656 29.15 3.95006C29.75 4.56676 30.05 5.34433 30.05 6.28278C30.05 7.22122 29.75 8.0122 29.15 8.65571C28.574 9.2724 27.842 9.58075 26.954 9.58075ZM29.438 12.2352V34.5167H24.398V12.2352H29.438ZM46.226 34.5167L39.458 25.0249V34.5167H34.418V4.75445H39.458V21.6867L46.154 12.2352H52.706L43.922 23.4162L52.778 34.5167H46.226ZM53.145 23.3759C53.145 21.07 53.565 19.0591 54.405 17.3431C55.245 15.6002 56.409 14.2596 57.897 13.3211C59.385 12.3559 61.089 11.8732 63.009 11.8732C65.481 11.8732 67.521 12.5704 69.129 13.9646C70.761 15.3321 71.853 17.2626 72.405 19.7562H66.97C66.682 18.7909 66.19 18.0402 65.494 17.5039C64.822 16.9409 63.982 16.6593 62.974 16.6593C61.534 16.6593 60.394 17.2492 59.554 18.429C58.714 19.5819 58.294 21.2309 58.294 23.3759C58.294 25.4941 58.714 27.1431 59.554 28.3229C60.394 29.4758 61.534 30.0523 62.974 30.0523C65.014 30.0523 66.346 29.0334 66.97 26.9957H72.406C71.854 29.4088 70.762 31.3259 69.13 32.747C67.498 34.1681 65.458 34.8786 63.01 34.8786C61.09 34.8786 59.386 34.4094 57.898 33.471C56.4218 32.5193 55.2125 31.1265 54.406 29.449C53.566 27.7062 53.145 25.6818 53.145 23.3759ZM80.138 15.6941C80.756 14.5473 81.6227 13.5928 82.658 12.9189C83.714 12.2486 84.914 11.9135 86.258 11.9135V17.8257H84.926C83.342 17.8257 82.142 18.2413 81.326 19.0725C80.534 19.9037 80.138 21.3516 80.138 23.4162V34.5167H75.098V12.2352H80.138V15.6941ZM101.712 31.3393C101.16 32.3582 100.26 33.2162 99.012 33.9134C97.764 34.5837 96.42 34.9188 94.98 34.9188C93.732 34.9188 92.604 34.6373 91.596 34.0742C90.588 33.5112 89.796 32.7336 89.22 31.7415C88.644 30.7495 88.356 29.6099 88.356 28.3229C88.356 26.2583 89.04 24.5691 90.408 23.2553C91.8 21.9415 93.876 21.2845 96.636 21.2845H101.712C101.664 19.8635 101.292 18.7373 100.596 17.9061C99.924 17.0481 98.988 16.6191 97.788 16.6191C96.732 16.6191 95.856 16.9409 95.16 17.5844C94.464 18.2011 94.02 19.0725 93.828 20.1986H88.788C89.028 18.5899 89.544 17.1554 90.336 15.8952C91.1449 14.6149 92.2362 13.5896 93.504 12.9189C94.824 12.195 96.3 11.833 97.932 11.833C99.612 11.833 101.124 12.2218 102.468 12.9994C103.803 13.7422 104.916 14.9019 105.672 16.3376C106.44 17.7855 106.824 19.4881 106.824 21.4454V34.5167H101.712V31.3393ZM96.456 30.3741C97.296 30.3741 98.112 30.173 98.904 29.7708C99.72 29.3686 100.392 28.7653 100.92 27.9609C101.448 27.1565 101.712 26.2047 101.712 25.1054V24.9445H96.924C95.772 24.9445 94.908 25.1992 94.332 25.7087C93.78 26.2181 93.504 26.8884 93.504 27.7196C93.504 28.524 93.756 29.1675 94.26 29.6501C94.788 30.1328 95.52 30.3741 96.456 30.3741ZM117.453 16.8604V34.5167H112.341V16.8604H110.073V12.2352H112.341V11.1091C112.341 8.37418 113.037 6.36321 114.429 5.0762C115.821 3.78919 117.921 3.1859 120.729 3.26634V8.0122C119.505 7.98539 118.653 8.2133 118.173 8.69593C117.693 9.17856 117.453 10.05 117.453 11.3102V12.2352H124.003V6.72519H129.079V12.2352H133.543V16.8604H129.079V27.6392C129.079 28.3899 129.235 28.9396 129.547 29.2882C129.883 29.6099 130.435 29.7708 131.203 29.7708H133.543V34.5167H130.375C126.127 34.5167 124.003 32.2108 124.003 27.599V16.8604H117.453Z" fill="white"/>
</svg>
